<?xml version="1.0" encoding="iso-8859-1"?>
<!-- Generator: Adobe Illustrator 19.0.0, SVG Export Plug-In . SVG Version: 6.00 Build 0)  -->
<svg version="1.1" id="Capa_1" xmlns="http://www.w3.org/2000/svg" xmlns:xlink="http://www.w3.org/1999/xlink" x="0px" y="0px"
	 viewBox="0 0 511.998 511.998" style="enable-background:new 0 0 511.998 511.998;" xml:space="preserve">
<circle style="fill:#C27C59;" cx="203.6" cy="254.838" r="147.71"/>
<path style="opacity:0.1;enable-background:new    ;" d="M231.662,367.271c-46.17,0-89.391-27.216-108.57-70.973
	c-10.328-23.561-10.862-49.734-1.504-73.698c9.357-23.963,27.487-42.848,51.049-53.176c39.669-17.386,86.086,0.739,103.475,40.408
	c14.241,32.492-0.605,70.513-33.098,84.756c-6.896,3.022-14.101,4.454-21.189,4.454c-20.406,0.002-39.889-11.85-48.592-31.704
	c-1.663-3.793,0.064-8.217,3.858-9.88c3.796-1.664,8.218,0.065,9.88,3.858c8.406,19.175,30.844,27.94,50.021,19.533
	c24.916-10.922,36.303-40.079,25.381-64.996c-14.066-32.094-51.62-46.757-83.715-32.691c-41.063,18-59.828,66.051-41.828,107.114
	c19.867,45.327,69.265,70.337,117.462,59.469c4.039-0.908,8.055,1.627,8.966,5.667c0.911,4.04-1.626,8.055-5.667,8.966
	C248.938,366.33,240.247,367.271,231.662,367.271z"/>
<path style="opacity:0.1;enable-background:new    ;" d="M170.705,110.813C104.966,125.768,55.898,184.57,55.898,254.837
	c0,81.576,66.13,147.706,147.706,147.706c33.841,0,65.017-11.389,89.923-30.531C103.081,343.525,132.577,151.775,170.705,110.813z"
	/>
<path style="fill:#FF9811;" d="M354.636,133.979c-2.668,0-5.25-1.426-6.606-3.938l-14.987-27.758
	c-1.968-3.645-0.608-8.195,3.036-10.163c3.645-1.968,8.194-0.608,10.163,3.036l14.987,27.758c1.968,3.645,0.608,8.195-3.036,10.163
	C357.06,133.689,355.839,133.979,354.636,133.979z"/>
<path style="fill:#FFDAB5;" d="M319.001,194.573v78.324c0,42.173-34.188,76.36-76.36,76.36H124.637
	c-57.853,0-108.562,38.688-123.844,94.487l0,0c-3.825,13.967,6.686,27.744,21.168,27.744h292.416
	c94.108,0,170.397-76.289,170.397-170.397V194.573c0-45.776-37.109-82.886-82.885-82.886l0,0
	C356.11,111.688,319.001,148.797,319.001,194.573z"/>
<path style="fill:#FF9811;" d="M449.138,133.979c-1.203,0-2.423-0.29-3.557-0.901c-3.645-1.968-5.004-6.519-3.036-10.163
	l14.987-27.758c1.969-3.645,6.516-5.003,10.163-3.036c3.645,1.968,5.004,6.519,3.036,10.163l-14.987,27.758
	C454.388,132.554,451.805,133.979,449.138,133.979z"/>
<circle style="fill:#EAEAEA;" cx="480.57" cy="71.935" r="31.428"/>
<path style="fill:#414B58;" d="M480.572,83.143c-4.143,0-7.5-3.357-7.5-7.5v-7.415c0-4.143,3.357-7.5,7.5-7.5s7.5,3.357,7.5,7.5
	v7.415C488.072,79.785,484.715,83.143,480.572,83.143z"/>
<path style="fill:#FFB655;" d="M319.001,194.573v78.324c0,42.173-34.188,76.36-76.36,76.36H124.637
	c-57.853,0-108.562,38.688-123.844,94.487l0,0c-3.825,13.967,6.686,27.744,21.168,27.744h292.416
	c94.108,0,170.397-76.289,170.397-170.397V194.573c0-45.776-37.109-82.886-82.885-82.886l0,0
	C356.11,111.688,319.001,148.797,319.001,194.573z"/>
<g>
	<ellipse style="fill:#FF6E6E;" cx="351.31" cy="191.248" rx="20.999" ry="16.723"/>
	<ellipse style="fill:#FF6E6E;" cx="452.46" cy="191.248" rx="20.999" ry="16.723"/>
</g>
<path style="fill:#414B58;" d="M401.887,195.164c-6.683,0-13.036-2.893-17.432-7.938c-2.722-3.123-2.396-7.86,0.728-10.581
	c3.122-2.721,7.86-2.396,10.581,0.728c1.547,1.774,3.778,2.792,6.123,2.792c2.345,0,4.577-1.018,6.125-2.793
	c2.721-3.123,7.459-3.448,10.581-0.725c3.123,2.721,3.447,7.459,0.726,10.581C414.922,192.271,408.568,195.164,401.887,195.164z"/>
<path style="fill:#FFA733;" d="M361.386,319.654v24.238c0,48.102-38.995,87.097-87.097,87.097H157.453
	c-31.499,0-61.103,15.05-79.663,40.5l0,0h236.585c38.363,0,73.762-12.681,102.241-34.074c16.307-25.317,25.771-55.458,25.771-87.81
	v-29.951c0-22.368-18.133-40.501-40.501-40.501l0,0C379.519,279.153,361.386,297.286,361.386,319.654z"/>
<circle style="fill:#EAEAEA;" cx="323.2" cy="71.935" r="31.428"/>
<path style="fill:#414B58;" d="M323.201,83.143c-4.143,0-7.5-3.357-7.5-7.5v-7.415c0-4.143,3.357-7.5,7.5-7.5s7.5,3.357,7.5,7.5
	v7.415C330.701,79.785,327.344,83.143,323.201,83.143z"/>
<path style="opacity:0.1;enable-background:new    ;" d="M180.774,349.258h-56.137c-57.853,0-108.562,38.688-123.845,94.487l0,0
	c-3.825,13.967,6.687,27.745,21.168,27.745h203.953C161.415,452.747,145.818,383.64,180.774,349.258z"/>
<g>
</g>
<g>
</g>
<g>
</g>
<g>
</g>
<g>
</g>
<g>
</g>
<g>
</g>
<g>
</g>
<g>
</g>
<g>
</g>
<g>
</g>
<g>
</g>
<g>
</g>
<g>
</g>
<g>
</g>
</svg>
