<svg height="512" viewBox="0 0 53 60" width="512" xmlns="http://www.w3.org/2000/svg"><g id="Page-1" fill="none" fill-rule="evenodd"><g id="007---Stopwatch"><g fill-rule="nonzero"><path id="Shape" d="m43.32 19.5c-.8582964-1.0182992-1.8017008-1.9617036-2.82-2.82-3.5445822-3.0059113-7.8883375-4.9136887-12.5-5.49-1.9919776-.2533356-4.0080224-.2533356-6 0-10.8956865 1.3718908-19.4703058 9.9640893-20.81987892 20.8625626-1.34957313 10.8984734 4.87021772 21.3226842 15.10216232 25.310839s21.8655577.5227519 28.2473668-8.4142824 5.8836174-21.0655863-1.2096502-29.4491192zm-18.32 34.5c-10.4934102 0-19-8.5065898-19-19s8.5065898-19 19-19 19 8.5065898 19 19c-.0093728 10.4895255-8.5104745 18.9906272-19 19z" fill="#f44335"/><path id="Shape" d="m43.32 19.5c-.8582964-1.0182992-1.8017008-1.9617036-2.82-2.82-3.5445822-3.0059113-7.8883375-4.9136887-12.5-5.49-.9947317-.1292574-1.9969092-.1927287-3-.19-.5053333 0-1.0053333.0153333-1.5.046.5.031 1 .078 1.5.144 4.6116625.5763113 8.9554178 2.4840887 12.5 5.49 1.0182992.8582964 1.9617036 1.8017008 2.82 2.82 5.8620516 6.925703 7.3159386 16.5657495 3.7572047 24.9122711-3.5587339 8.3465217-11.5212841 13.9716508-20.5772047 14.5367289.5.03 1 .051 1.5.051 9.3438058-.0013556 17.8374144-5.4255785 21.7687917-13.9020743s2.5857497-18.4641316-3.4487917-25.5979257z" fill="#c81e1e"/><circle id="Oval" cx="25" cy="35" fill="#00bcd4" r="19"/><path id="Shape" d="m25 16c-.506 0-1 .037-1.5.076 9.8781364.7739806 17.4992499 9.0155882 17.4992499 18.924s-7.6211135 18.1500194-17.4992499 18.924c.5.039.994.076 1.5.076 10.4934102 0 19-8.5065898 19-19s-8.5065898-19-19-19z" fill="#00838f"/><path id="Shape" d="m28 6v5.19c-1.9919776-.2533356-4.0080224-.2533356-6 0v-5.19z" fill="#7f8e94"/><path id="Shape" d="m32 3.5c.0021341.66369315-.2605727 1.30081863-.729877 1.77012298-.4693044.46930436-1.1064298.7320111-1.770123.72987702h-9c-1.3807119 0-2.5-1.11928813-2.5-2.5s1.1192881-2.5 2.5-2.5h9c1.3807119 0 2.5 1.11928813 2.5 2.5z" fill="#f44335"/><path id="Shape" d="m47 15.82-3.68 3.68c-.8582964-1.0182992-1.8017008-1.9617036-2.82-2.82l3.68-3.68z" fill="#7f8e94"/><path id="Shape" d="m51.41 17.41c-.3720993.3774338-.8799866.5899281-1.41.5899281s-1.0379007-.2124943-1.41-.5899281l-1.59-1.59-2.82-2.82-1.59-1.59c-.7787215-.7787215-.7787215-2.0412785 0-2.82s2.0412785-.7787215 2.82 0l6 6c.3789438.3712876.5924878.8794787.5924878 1.41s-.213544 1.0387124-.5924878 1.41z" fill="#f44335"/><path id="Shape" d="m25 20.007c7.8530523.0048699 14.3751162 6.0617572 14.96 13.893.0236331.2810015-.0707006.5591689-.26039.7678272-.1896894.2086584-.4576343.3289975-.73961.3321728h-13.96z" fill="#ef314c"/><path id="Shape" d="m28 35c0 1.6568542-1.3431458 3-3 3s-3-1.3431458-3-3c-.0024053-.570837.160861-1.1301107.47-1.61v-.01c.5538487-.8602571 1.5068721-1.3801412 2.53-1.3801412s1.9761513.5198841 2.53 1.3801412c.304805.4855453.4676138 1.0467159.47 1.62z" fill="#7f8e94"/><path id="Shape" d="m27.53 33.38c-.5538487-.8602571-1.5068721-1.3801412-2.53-1.3801412s-1.9761513.5198841-2.53 1.3801412l1.02-13.3c.0576415-.7913909.7165127-1.4040182 1.51-1.4040182s1.4523585.6126273 1.51 1.4040182z" fill="#f5f5f5"/></g><path id="Shape" d="m22.47 33.39v-.01" stroke="#000" stroke-linejoin="round" stroke-width="2"/><path id="Shape" d="m10.487 39.876c-.4573528-.0006967-.85594896-.3115852-.968-.755-1.40209226-5.2572316-.02682077-10.8665146 3.648-14.879.3755183-.3890423.992267-.4091251 1.3922992-.0453365.4000323.3637887.4384382.9796678.0867008 1.3903365-3.2176025 3.5202191-4.4193192 8.437532-3.188 13.045.0647732.2572631.0246657.5297215-.1114948.7574059-.1361606.2276844-.3572139.391933-.6145052.4565941-.0800838.0202437-.1623979.030323-.245.03z" fill="#f5f5f5" fill-rule="nonzero"/><circle id="Oval" cx="17" cy="22" fill="#f5f5f5" fill-rule="nonzero" r="1"/><path id="Shape" d="m25 60c9.5684642.008036 18.3007173-5.4506232 22.484998-14.0557012 4.1842806-8.605078 3.0852252-18.8442812-2.829998-26.3652988l2.345-2.341.883.883c.7532234.7798698 1.8686337 1.0926378 2.917522.8180915 1.0488883-.2745464 1.8680231-1.0936812 2.1425695-2.1425695.2745463-1.0488883-.0382217-2.1642986-.8180915-2.917522l-6-6c-.7532234-.77986975-1.8686337-1.09263779-2.917522-.81809147s-1.8680231 1.0936812-2.1425695 2.1425695c-.2745463 1.04888827.0382217 2.16429857.8180915 2.91752197l.883.883-2.341 2.341c-3.3199216-2.6171138-7.2519463-4.3451397-11.425-5.021v-3.324h.5c1.9329966 0 3.5-1.56700338 3.5-3.5s-1.5670034-3.5-3.5-3.5h-9c-1.9329966 0-3.5 1.56700338-3.5 3.5s1.5670034 3.5 3.5 3.5h.5v3.324c-12.85569115 2.090088-21.95287328 13.7000854-20.90750187 26.6825529 1.0453714 12.9824674 11.88301627 22.9872771 24.90750187 22.9934471zm18.293-50.707c.3904999-.39038194 1.0235001-.39038194 1.414 0l6 6c.3903819.3904999.3903819 1.0235001 0 1.414-.395481.3781625-1.018519.3781625-1.414 0l-6-6c-.3903819-.3904999-.3903819-1.02350015 0-1.414zm.883 5.125 1.406 1.406-2.226 2.226c-.45-.4873333-.9186667-.956-1.406-1.406zm-25.176-10.918c0-.82842712.6715729-1.5 1.5-1.5h9c.8284271.00000001 1.5.67157288 1.5 1.5s-.6715729 1.49999999-1.5 1.5h-9c-.3978247 0-.7793556-.15803526-1.0606602-.43933983-.2813045-.28130457-.4393398-.66283544-.4393398-1.06066017zm4 3.5h4v3.087c-.661-.052-1.326-.087-2-.087s-1.339.035-2 .087zm2 5c12.7025492 0 23 10.2974508 23 23s-10.2974508 23-23 23-23-10.2974508-23-23c.01432841-12.6966095 10.3033905-22.9856716 23-23z" fill="#000" fill-rule="nonzero"/><path id="Shape" d="m25 55c11.045695 0 20-8.954305 20-20s-8.954305-20-20-20-20 8.954305-20 20c.01267466 11.0404407 8.9595593 19.9873253 20 20zm0-38c9.9411255 0 18 8.0588745 18 18s-8.0588745 18-18 18-18-8.0588745-18-18c.01157214-9.9363282 8.0636718-17.9884279 18-18z" fill="#000" fill-rule="nonzero"/><path id="Shape" d="m30.226 22.017c4.9493218 2.0133867 8.3323917 6.65494 8.734 11.983h-6.96c-.5522847 0-1 .4477153-1 1s.4477153 1 1 1h6.96c.5517129.0018927 1.0790152-.2273061 1.454-.632.3861447-.4161738.582716-.9736688.543-1.54-.4700515-6.0784582-4.335191-11.3691655-9.983-13.665-.3335794-.14565-.719954-.0985436-1.0087669.122988s-.4344449.5824966-.3802237.942426c.0542213.3599294.2997315.6619711.6409906.788586z" fill="#000" fill-rule="nonzero"/><path id="Shape" d="m25 39c2.209139 0 4-1.790861 4-4-.0045778-.6542876-.171576-1.2971962-.486-1.871l-1.008-13.135c-.1029149-1.3091516-1.1960871-2.3185475-2.5092768-2.3169758-1.3131896.0015718-2.4039424 1.0135815-2.5037232 2.3229758l-1 13.12c-.3183084.5758413-.4877687 1.2220593-.493 1.88 0 2.209139 1.790861 4 4 4zm0-2c-1.1045695 0-2-.8954305-2-2s.8954305-2 2-2 2 .8954305 2 2-.8954305 2-2 2zm0-17.32c.2686973.0022259.4912642.209174.513.477l.851 11.1c-.8775603-.3399547-1.8504397-.3399547-2.728 0l.85-11.088c.0167501-.2724942.2410097-.4858463.514-.489z" fill="#000" fill-rule="nonzero"/></g></g></svg>